# xmcd
#
# Track frame offsets:
#	150
#	14913
#	24975
#	38396
#	51193
#	65950
#	81498
#	94921
#	109299
#	121915
#	138771
#	154811
#
# Disc length: 2247 seconds
#
# Revision: 0
# Processed by: cddbd v1.5.2PL0 Copyright (c) Steve Scherf et al.
# Submitted via: EasyCDDAExtractor 10.0.2.1
#
DISCID=a208c50c
DTITLE=Antonio Aguilar - Corridos
DYEAR=2001
DGENRE=Country
TTITLE0=El Hijo Desobediente
TTITLE1=Palomita Voladora
TTITLE2=Corrido De Lucio Vazquez
TTITLE3=Adios Madre Querida
TTITLE4=General Felipe Angeles
TTITLE5=Me Importa Poco
TTITLE6=Gabino Barrera
TTITLE7=Prisionero De San Juan De Ulua
TTITLE8=Corrido De Arnulfo Gonzalez
TTITLE9=Juan Charrasqueado
TTITLE10=Rosita Alvirez
TTITLE11=El Dia De San Juan
EXTD=
EXTT0=
EXTT1=
EXTT2=
EXTT3=
EXTT4=
EXTT5=
EXTT6=
EXTT7=
EXTT8=
EXTT9=
EXTT10=
EXTT11=
PLAYORDER=
